<svg id="Capa_1" enable-background="new 0 0 510 510" height="22" viewBox="0 0 510 510" width="22" xmlns="http://www.w3.org/2000/svg"><g><path d="m270 60h-30v30h-30v30h30v30h30v-30h30v-30h-30z"/><path d="m420 240v-120h-60v-120h-210v120h-60v120h-90v270h510v-270zm60 30v150h-60v-150zm-300-240h150v150h-150zm-90 240v150h-60v-150zm-60 210v-30h60v30zm180 0v-90h30v90zm60 0v-90h30v90zm120 0h-60v-120h-150v120h-60v-240-90h30v60h210v-60h30v90zm30 0v-30h60v30z"/><path d="m150 240h30v30h-30z"/><path d="m210 240h30v30h-30z"/><path d="m270 240h30v30h-30z"/><path d="m330 240h30v30h-30z"/><path d="m150 300h30v30h-30z"/><path d="m210 300h30v30h-30z"/><path d="m270 300h30v30h-30z"/><path d="m330 300h30v30h-30z"/></g></svg>